<svg width="100" height="100" viewBox="0 0 100 100" fill="none" xmlns="http://www.w3.org/2000/svg">
<g clip-path="url(#clip0)">
<path d="M63.6844 90.7086L92.741 9.9082C93.2336 8.5378 92.457 7.5386 91.0074 7.6784L68.1572 9.8796C66.7078 10.0194 65.142 11.2492 64.6632 12.6242L37.7686 89.8432C37.2894 91.2182 38.0828 92.3346 39.539 92.3346H61.7802C62.5082 92.3346 63.2994 91.7786 63.5458 91.0932L63.6844 90.7086Z" fill="#CF9EE9"/>
<g filter="url(#filter0_f)">
<path d="M60.3695 91.0932L48.2717 56.145L49.9999 55.0648L62.3139 90.7086L60.3695 91.0932Z" fill="#EBEBEB"/>
</g>
<path d="M8.99252 7.6784L31.8427 9.8796C33.2921 10.0194 34.8595 11.2486 35.3407 12.623L62.8043 91.0896C63.0447 91.777 62.6489 92.3346 61.9207 92.3346H39.5389C38.0827 92.3346 36.5003 91.2222 36.0075 89.8518L7.25892 9.9082C6.76632 8.5378 7.54292 7.5386 8.99252 7.6784Z" fill="#9A3FCB"/>
</g>
<defs>
<filter id="filter0_f" x="35.3909" y="42.184" width="39.8039" height="61.79" filterUnits="userSpaceOnUse" color-interpolation-filters="sRGB">
<feFlood flood-opacity="0" result="BackgroundImageFix"/>
<feBlend mode="normal" in="SourceGraphic" in2="BackgroundImageFix" result="shape"/>
<feGaussianBlur stdDeviation="6.44041" result="effect1_foregroundBlur"/>
</filter>
<clipPath id="clip0">
<rect width="100" height="100" fill="white"/>
</clipPath>
</defs>
</svg>
